<svg id="visual" viewBox="0 0 960 540" width="960" height="540" xmlns="http://www.w3.org/2000/svg" xmlns:xlink="http://www.w3.org/1999/xlink" version="1.1"><path d="M0 382L20 392.5C40 403 80 424 120 430.5C160 437 200 429 240 416C280 403 320 385 360 385.8C400 386.7 440 406.3 480 407.2C520 408 560 390 600 382.3C640 374.7 680 377.3 720 378.5C760 379.7 800 379.3 840 390.3C880 401.3 920 423.7 940 434.8L960 446L960 541L940 541C920 541 880 541 840 541C800 541 760 541 720 541C680 541 640 541 600 541C560 541 520 541 480 541C440 541 400 541 360 541C320 541 280 541 240 541C200 541 160 541 120 541C80 541 40 541 20 541L0 541Z" fill="#e54666"></path><path d="M0 461L20 456C40 451 80 441 120 439.2C160 437.3 200 443.7 240 450.8C280 458 320 466 360 468.3C400 470.7 440 467.3 480 469.8C520 472.3 560 480.7 600 480C640 479.3 680 469.7 720 469.8C760 470 800 480 840 480C880 480 920 470 940 465L960 460L960 541L940 541C920 541 880 541 840 541C800 541 760 541 720 541C680 541 640 541 600 541C560 541 520 541 480 541C440 541 400 541 360 541C320 541 280 541 240 541C200 541 160 541 120 541C80 541 40 541 20 541L0 541Z" fill="#3e63dd"></path></svg>