<svg xmlns="http://www.w3.org/2000/svg" xmlns:xlink="http://www.w3.org/1999/xlink" version="1.1" id="Layer_1" x="0px" y="0px" style="enable-background:new 0 0 68 68;" xml:space="preserve" viewBox="1.78 18.52 64.43 30.96">
<g>
	<path d="M48.8739929,40.0805054c0.4470062-1.03302,0.7750015-2.1210022,0.9710007-3.2290039   c0.1829987-0.9440002,0.2750015-1.9060059,0.2750015-2.8609924c0-0.9900208-0.0889969-1.9470215-0.2630005-2.8370056   c-0.1940002-1.0769958-0.5199966-2.1640015-0.9720001-3.2319946c-0.935997-2.1849976-2.3919983-4.1549988-4.2099991-5.697998   c-2.7910004-2.3890076-6.3600006-3.70401-10.0459976-3.70401c-3.6740055,0-7.2340031,1.3150024-10.0250034,3.70401   c-1.8190002,1.5429993-3.2750015,3.5130005-4.2109985,5.6999817c-0.4520035,1.0679932-0.7789993,2.1549988-0.9700012,3.223999   c-0.1760025,0.8959961-0.2649994,1.8529968-0.2649994,2.8430176c0,0.9570007,0.0930023,1.9199829,0.2740021,2.8559875   c0.197998,1.1130066,0.5249939,2.2009888,0.9720001,3.2330017c0.9409943,2.1959839,2.3939972,4.1669922,4.1989975,5.696991   c2.7919998,2.3890076,6.3519974,3.70401,10.0260029,3.70401c3.685997,0,7.2549973-1.3150024,10.0459976-3.7030029   C46.4809952,44.2464905,47.9329987,42.2754822,48.8739929,40.0805054 M44.487999,32.7064819l-4.0470047,3.9450073   c-0.0719986,0.0700073-0.1039963,0.1700134-0.086998,0.2669983l0.9550018,5.5720215   c0.0680008,0.3979797-0.0920029,0.7919922-0.4190063,1.0289917c-0.1839981,0.1340027-0.3999939,0.2019958-0.6169968,0.2019958   c-0.1669998,0-0.3349991-0.0400085-0.4909973-0.1220093l-5.0019989-2.6300049c-0.0880051-0.04599-0.1940002-0.04599-0.2820053,0   l-5.0030003,2.6300049c-0.3560028,0.1870117-0.7799988,0.1570129-1.1080017-0.0799866   c-0.3259964-0.2369995-0.4860001-0.631012-0.4179993-1.0289917l0.9560013-5.5720215   c0.0159988-0.0969849-0.0159988-0.196991-0.086998-0.2669983l-4.0480042-3.9450073   c-0.2889938-0.2809753-0.3909988-0.6949768-0.2659988-1.0779724c0.1240005-0.3840027,0.4500046-0.65802,0.848999-0.7160034   l5.5940018-0.8130188c0.0979996-0.0149841,0.1829987-0.0759888,0.2269974-0.164978l2.5020084-5.0690002   c0.1779938-0.3619995,0.5399933-0.5870056,0.9429932-0.5870056s0.765007,0.2250061,0.9440002,0.5870056l2.5009995,5.0690002   c0.0440063,0.0889893,0.1290054,0.1499939,0.227005,0.164978l5.5940018,0.8130188   c0.3989944,0.0579834,0.7249985,0.3320007,0.848999,0.7149963C44.8789978,32.0115051,44.7769928,32.4244995,44.487999,32.7064819" fill="#1570ef"/>
	<path d="M66.0652084,22.7469788c-0.2200012-0.3799744-0.6000061-0.6099854-1.0400085-0.6099854H45.6952057   c1.6600037,1.519989,2.9899979,3.4200134,3.8799973,5.4899902c0.1100006,0.2700195,0.2200012,0.5500183,0.3199997,0.8200073   h12.6899948c0.4199982,0,0.8000031-0.2200012,1.0100098-0.5700073l2.4399872-3.9100037   C66.2652054,23.5870056,66.2751999,23.1369934,66.0652084,22.7469788" fill="#1570ef"/>
	<path d="M60.8250046,30.8465881H50.5550003c0.0200043,0.0600281,0.0299988,0.1100159,0.0400009,0.1700134   c0.1800003,0.9299927,0.2699966,1.9299927,0.2699966,2.9700012c0,1.0100098-0.0899963,2.019989-0.2799988,3.0100098   c-0.0099945,0.0499878-0.0199966,0.1099854-0.0299988,0.1600037h7.8300018c0.409996,0,0.7999954-0.2200012,1-0.5700073   l2.4499969-3.9100037c0.2300034-0.3800049,0.2400055-0.8300171,0.0299988-1.2200012   C61.6450043,31.0765991,61.2549973,30.8465881,60.8250046,30.8465881" fill="#1570ef"/>
	<path d="M56.6248016,39.5565796h-6.7300034c-0.1100006,0.2800293-0.2099991,0.5500183-0.3300018,0.8200073   c-0.9000015,2.0800171-2.2299957,3.980011-3.8799973,5.4900208h8.5c0.409996,0,0.7999954-0.2200012,1-0.5700073   l2.4400024-3.9100037c0.2399979-0.3800049,0.25-0.8300171,0.0299988-1.2200012   C57.4448013,39.7865906,57.0547943,39.5565796,56.6248016,39.5565796" fill="#1570ef"/>
	<path d="M19.7048016,27.6268921c0.8899994-2.0699768,2.2199936-3.9599915,3.8699951-5.4899902H2.9848008   c-0.4400024,0-0.8300018,0.230011-1.0500032,0.6100159c-0.2099991,0.3899841-0.1999969,0.8399963,0.0299988,1.2200012   l2.4500046,3.9099731c0.2200012,0.3600159,0.5999985,0.5700073,1.0099945,0.5700073h13.9599991   C19.4747982,28.1769104,19.5847988,27.8969116,19.7048016,27.6268921" fill="#1570ef"/>
	<path d="M18.695097,36.9769897c-0.1900024-0.9699707-0.2900009-1.9799805-0.2900009-2.9899902   c0-1.0299988,0.0999985-2.0400085,0.2799988-2.9799805c0.0100021-0.0500183,0.0199966-0.1100159,0.0299988-0.1600037H7.1850953   c-0.4400024,0-0.8300018,0.2299805-1.0400009,0.6099854c-0.2200012,0.3900146-0.2099991,0.8399963,0.0299988,1.2200012   l2.440002,3.9100037c0.2200012,0.3599854,0.5999985,0.5700073,1.0100021,0.5700073h9.109993   C18.7150936,37.0970154,18.7050915,37.0370178,18.695097,36.9769897" fill="#1570ef"/>
	<path d="M19.3850002,39.5565796h-7.9900055c-0.4499969,0-0.8399963,0.230011-1.0499954,0.6200256   c-0.2200012,0.3799744-0.2099991,0.8299866,0.0299988,1.2099915l2.4399948,3.9100037   c0.2200012,0.3599854,0.6000061,0.5700073,1.0200043,0.5700073h9.75c-1.6500015-1.5200195-2.9800034-3.4100037-3.8700027-5.4900208   C19.5949993,40.1065979,19.4949932,39.8366089,19.3850002,39.5565796" fill="#1570ef"/>
</g>
</svg>