<svg id="visual" viewBox="0 0 960 540" width="960" height="540" xmlns="http://www.w3.org/2000/svg" xmlns:xlink="http://www.w3.org/1999/xlink" version="1.1"><path d="M0 60L17.8 60C35.7 60 71.3 60 106.8 60C142.3 60 177.7 60 213.2 61.8C248.7 63.7 284.3 67.3 320 66.5C355.7 65.7 391.3 60.3 426.8 67.5C462.3 74.7 497.7 94.3 533.2 98.8C568.7 103.3 604.3 92.7 640 87.3C675.7 82 711.3 82 746.8 79.3C782.3 76.7 817.7 71.3 853.2 66.8C888.7 62.3 924.3 58.7 942.2 56.8L960 55L960 0L942.2 0C924.3 0 888.7 0 853.2 0C817.7 0 782.3 0 746.8 0C711.3 0 675.7 0 640 0C604.3 0 568.7 0 533.2 0C497.7 0 462.3 0 426.8 0C391.3 0 355.7 0 320 0C284.3 0 248.7 0 213.2 0C177.7 0 142.3 0 106.8 0C71.3 0 35.7 0 17.8 0L0 0Z" fill="#b64e12"></path><path d="M0 190L17.8 190C35.7 190 71.3 190 106.8 203.5C142.3 217 177.7 244 213.2 262.8C248.7 281.7 284.3 292.3 320 295C355.7 297.7 391.3 292.3 426.8 294.2C462.3 296 497.7 305 533.2 298.7C568.7 292.3 604.3 270.7 640 250C675.7 229.3 711.3 209.7 746.8 215.2C782.3 220.7 817.7 251.3 853.2 255C888.7 258.7 924.3 235.3 942.2 223.7L960 212L960 53L942.2 54.8C924.3 56.7 888.7 60.3 853.2 64.8C817.7 69.3 782.3 74.7 746.8 77.3C711.3 80 675.7 80 640 85.3C604.3 90.7 568.7 101.3 533.2 96.8C497.7 92.3 462.3 72.7 426.8 65.5C391.3 58.3 355.7 63.7 320 64.5C284.3 65.3 248.7 61.7 213.2 59.8C177.7 58 142.3 58 106.8 58C71.3 58 35.7 58 17.8 58L0 58Z" fill="#e16114"></path><path d="M0 422L17.8 414.8C35.7 407.7 71.3 393.3 106.8 392.5C142.3 391.7 177.7 404.3 213.2 408.8C248.7 413.3 284.3 409.7 320 411.5C355.7 413.3 391.3 420.7 426.8 429.7C462.3 438.7 497.7 449.3 533.2 454.7C568.7 460 604.3 460 640 451.8C675.7 443.7 711.3 427.3 746.8 416.5C782.3 405.7 817.7 400.3 853.2 404.8C888.7 409.3 924.3 423.7 942.2 430.8L960 438L960 210L942.2 221.7C924.3 233.3 888.7 256.7 853.2 253C817.7 249.3 782.3 218.7 746.8 213.2C711.3 207.7 675.7 227.3 640 248C604.3 268.7 568.7 290.3 533.2 296.7C497.7 303 462.3 294 426.8 292.2C391.3 290.3 355.7 295.7 320 293C284.3 290.3 248.7 279.7 213.2 260.8C177.7 242 142.3 215 106.8 201.5C71.3 188 35.7 188 17.8 188L0 188Z" fill="#fa7c32"></path><path d="M0 541L17.8 541C35.7 541 71.3 541 106.8 541C142.3 541 177.7 541 213.2 541C248.7 541 284.3 541 320 541C355.7 541 391.3 541 426.8 541C462.3 541 497.7 541 533.2 541C568.7 541 604.3 541 640 541C675.7 541 711.3 541 746.8 541C782.3 541 817.7 541 853.2 541C888.7 541 924.3 541 942.2 541L960 541L960 436L942.2 428.8C924.3 421.7 888.7 407.3 853.2 402.8C817.7 398.3 782.3 403.7 746.8 414.5C711.3 425.3 675.7 441.7 640 449.8C604.3 458 568.7 458 533.2 452.7C497.7 447.3 462.3 436.7 426.8 427.7C391.3 418.7 355.7 411.3 320 409.5C284.3 407.7 248.7 411.3 213.2 406.8C177.7 402.3 142.3 389.7 106.8 390.5C71.3 391.3 35.7 405.7 17.8 412.8L0 420Z" fill="#ff9b60"></path></svg>